<svg width="64" height="64" viewBox="0 0 64 64" fill="none" xmlns="http://www.w3.org/2000/svg">
<circle cx="32" cy="32" r="32" fill="#F8F9FA"/>
<path d="M49.2992 37.7575C49.1995 37.7575 49.1005 37.7313 49.0132 37.6805L48.1023 37.1415C47.9662 37.0655 48.0325 37.0383 48.0775 37.0229C48.259 36.9596 48.2958 36.9448 48.4893 36.8355C48.5096 36.8242 48.5361 36.8283 48.5571 36.8407L49.2566 37.2563C49.282 37.2704 49.3181 37.2704 49.3412 37.2563L52.0695 35.6816C52.0953 35.6671 52.1114 35.6379 52.1114 35.6077V32.4589C52.1114 32.428 52.0953 32.3994 52.0692 32.3836L49.3418 30.8103C49.3164 30.7958 49.2831 30.7958 49.2576 30.8103L46.5307 32.384C46.5045 32.3994 46.4877 32.429 46.4877 32.4589V35.6077C46.4877 35.6379 46.5045 35.6664 46.5307 35.6805L47.278 36.1126C47.6836 36.3151 47.9321 36.0765 47.9321 35.8366V32.7274C47.9321 32.6837 47.9675 32.649 48.0112 32.649H48.3573C48.4003 32.649 48.4361 32.6837 48.4361 32.7274V35.8366C48.4361 36.3777 48.1415 36.6881 47.6283 36.6881C47.4705 36.6881 47.3464 36.6881 46.9999 36.5176L46.2845 36.1057C46.1075 36.0033 45.9985 35.8122 45.9985 35.608V32.4592C45.9985 32.2547 46.1075 32.0639 46.2845 31.9622L49.0129 30.3854C49.1854 30.2881 49.4147 30.2881 49.5859 30.3854L52.3143 31.9622C52.4909 32.0643 52.6006 32.2551 52.6006 32.4592V35.608C52.6006 35.8125 52.4909 36.0026 52.3143 36.1057L49.5859 37.6808C49.4993 37.7313 49.4006 37.7575 49.2992 37.7575ZM50.1424 35.5881C48.9479 35.5881 48.698 35.0398 48.698 34.5802C48.698 34.5369 48.7334 34.5015 48.7771 34.5015H49.1298C49.1693 34.5015 49.2019 34.5296 49.2081 34.5681C49.2611 34.9274 49.4202 35.1085 50.1424 35.1085C50.7168 35.1085 50.9616 34.9786 50.9616 34.6733C50.9616 34.4973 50.8922 34.3671 49.9991 34.2794C49.2525 34.2055 48.7908 34.0408 48.7908 33.4431C48.7908 32.8927 49.2549 32.5641 50.0324 32.5641C50.9066 32.5641 51.339 32.8676 51.3937 33.5187C51.3958 33.5407 51.3878 33.5623 51.3731 33.5792C51.3579 33.5947 51.3373 33.6043 51.3153 33.6043H50.9609C50.9241 33.6043 50.8918 33.5785 50.8843 33.5427C50.799 33.1646 50.5928 33.044 50.0321 33.044C49.4048 33.044 49.3319 33.2629 49.3319 33.4262C49.3319 33.6246 49.4178 33.6823 50.2652 33.7944C51.1036 33.9054 51.502 34.0621 51.502 34.6517C51.5023 35.2474 51.0066 35.5881 50.1424 35.5881Z" fill="#83CD29"/>
<path d="M43.6812 33.5228C43.7888 33.4599 43.8552 33.3451 43.8552 33.2203V32.4111C43.8552 32.2867 43.7892 32.1719 43.6812 32.109L40.8061 30.4397C40.6978 30.3768 40.5644 30.3765 40.4558 30.439L37.5628 32.1093C37.4549 32.1719 37.3882 32.287 37.3882 32.4118V35.7517C37.3882 35.8772 37.4556 35.9933 37.5649 36.0556L40.4397 37.6935C40.5455 37.7544 40.6755 37.7547 40.7824 37.6956L42.5211 36.729C42.5764 36.698 42.6108 36.6403 42.6111 36.5777C42.6115 36.5145 42.5778 36.456 42.5231 36.4247L39.6122 34.7541C39.5576 34.7228 39.5242 34.6651 39.5242 34.6029V33.5558C39.5242 33.4932 39.5576 33.4358 39.6116 33.4049L40.518 32.8824C40.5717 32.8511 40.6383 32.8511 40.6923 32.8824L41.5988 33.4049C41.6531 33.4362 41.6864 33.4936 41.6864 33.5558V34.3794C41.6864 34.4423 41.7198 34.5001 41.7737 34.531C41.8281 34.5623 41.8947 34.5623 41.9491 34.5307L43.6812 33.5228Z" fill="#404137"/>
<path d="M40.5883 33.3661C40.6092 33.3544 40.6347 33.3544 40.6553 33.3661L41.2104 33.6868C41.2311 33.6988 41.2438 33.7212 41.2438 33.7449V34.386C41.2438 34.41 41.2311 34.432 41.2104 34.4441L40.6553 34.7644C40.6347 34.7765 40.6089 34.7765 40.5883 34.7644L40.0334 34.4441C40.0125 34.432 39.9998 34.41 39.9998 34.386V33.7449C39.9998 33.7212 40.0125 33.6988 40.0334 33.6868L40.5883 33.3661Z" fill="#83CD29"/>
<path d="M33.0597 34.6998C33.0597 34.7307 33.0432 34.7596 33.0161 34.7754L32.0226 35.3481C31.9955 35.3639 31.9621 35.3639 31.9353 35.3481L30.9419 34.7754C30.9147 34.7596 30.8982 34.7307 30.8982 34.6998V33.5524C30.8982 33.5214 30.9151 33.4922 30.9419 33.4764L31.9353 32.903C31.9625 32.8869 31.9958 32.8869 32.023 32.903L33.0168 33.4764C33.0436 33.4922 33.0601 33.5214 33.0601 33.5524V34.6998H33.0597ZM33.3282 26.2037C33.2742 26.1738 33.2082 26.1745 33.1546 26.2058C33.1013 26.2374 33.0683 26.2944 33.0683 26.3563V30.7958C33.0683 30.8392 33.045 30.8797 33.0075 30.9017C32.9697 30.9234 32.9229 30.9234 32.8851 30.9017L32.1605 30.4841C32.0525 30.4218 31.9195 30.4218 31.8116 30.4841L28.9179 32.154C28.8096 32.2166 28.7429 32.3321 28.7429 32.4568V35.7977C28.7429 35.9225 28.8096 36.0377 28.9175 36.1006L31.8112 37.7716C31.9192 37.8341 32.0525 37.8341 32.1608 37.7716L35.0552 36.1006C35.1631 36.0377 35.2298 35.9225 35.2298 35.7977V27.4697C35.2298 27.3432 35.1611 27.2263 35.0507 27.1645L33.3282 26.2037Z" fill="#404137"/>
<path d="M23.1444 30.4212C23.2524 30.3586 23.3857 30.3586 23.4937 30.4212L26.3874 32.0908C26.4953 32.1533 26.562 32.2688 26.562 32.3936V35.7355C26.562 35.8603 26.4953 35.9758 26.3874 36.0384L23.494 37.7093C23.3861 37.7716 23.2527 37.7716 23.1444 37.7093L20.2518 36.0384C20.1438 35.9758 20.0771 35.8603 20.0771 35.7355V32.3933C20.0771 32.2688 20.1438 32.1533 20.2518 32.0908L23.1444 30.4212Z" fill="#83CD29"/>
<path d="M17.8821 32.3657C17.8821 32.2399 17.8161 32.1244 17.7075 32.0622L14.8148 30.3974C14.7653 30.3686 14.7107 30.3538 14.6553 30.3517H14.6254C14.5704 30.3538 14.5154 30.3686 14.4659 30.3974L11.5729 32.0622C11.4653 32.1244 11.3979 32.2399 11.3979 32.3657L11.4041 36.8482C11.4041 36.9108 11.4368 36.9689 11.4914 36.9992C11.5451 37.0315 11.6114 37.0315 11.665 36.9992L13.3838 36.0147C13.4924 35.95 13.5588 35.8362 13.5588 35.7115V33.6173C13.5588 33.4922 13.6248 33.3771 13.733 33.3145L14.4652 32.8931C14.5195 32.8611 14.5794 32.846 14.6399 32.846C14.6997 32.846 14.7609 32.8611 14.8141 32.8931L15.5456 33.3145C15.6539 33.3771 15.7206 33.4922 15.7206 33.6173V35.7115C15.7206 35.8362 15.7876 35.9507 15.8956 36.0147L17.6143 36.9992C17.6683 37.0315 17.7357 37.0315 17.7889 36.9992C17.8422 36.9686 17.8756 36.9105 17.8756 36.8482L17.8821 32.3657Z" fill="#404137"/>
</svg>

