<svg width="180" height="180" viewBox="0 0 180 180" fill="none" xmlns="http://www.w3.org/2000/svg">
<path fill-rule="evenodd" clip-rule="evenodd" d="M118.831 89.1478L88.9987 118.977C88.9987 118.977 99.6075 115.664 114.854 120.966C117.419 121.857 121.711 117.565 120.819 115C115.518 99.7537 118.831 89.1478 118.831 89.1478Z" fill="url(#paint0_linear_1054_1813)"/>
<path fill-rule="evenodd" clip-rule="evenodd" d="M38.9925 39.1388C57.105 21.0291 86.5097 21.0291 104.622 39.1388C122.732 57.2513 122.732 86.6559 104.622 104.768C86.5097 122.878 57.105 122.878 38.9925 104.768C20.8828 86.6559 20.8828 57.2513 38.9925 39.1388Z" fill="url(#paint1_linear_1054_1813)"/>
<path fill-rule="evenodd" clip-rule="evenodd" d="M98.6231 34.0706C100.761 35.5896 102.767 37.2849 104.622 39.1388C122.732 57.2513 122.732 86.6559 104.622 104.768C86.5097 122.878 57.105 122.878 38.9925 104.768C37.9266 103.7 36.9225 102.594 35.9803 101.455C53.5359 107.159 73.6003 103.042 87.5391 89.1028C102.406 74.2359 106.102 52.3997 98.6231 34.0706Z" fill="#E5EEF8"/>
<path fill-rule="evenodd" clip-rule="evenodd" d="M35.0156 35.1619C55.3219 14.8556 88.2928 14.8556 108.599 35.1619C128.905 55.4681 128.905 88.4391 108.599 108.745C88.2928 129.052 55.3219 129.052 35.0156 108.745C14.7094 88.4391 14.7094 55.4681 35.0156 35.1619ZM40.9809 41.1272C57.9937 24.1144 85.6209 24.1144 102.634 41.1272C119.647 58.14 119.647 85.7672 102.634 102.78C85.6209 119.793 57.9937 119.793 40.9809 102.78C23.9681 85.7672 23.9681 58.14 40.9809 41.1272Z" fill="url(#paint2_linear_1054_1813)"/>
<path fill-rule="evenodd" clip-rule="evenodd" d="M25.1916 95.0906C15.5391 75.631 18.8128 51.3647 35.0156 35.1619C50.2312 19.9463 72.5569 16.1325 91.3416 23.7206C91.5836 26.8125 91.6109 29.9175 91.4231 33.0131C75.0797 24.7838 54.6216 27.4894 40.9809 41.1272C26.5219 55.5863 24.3506 77.7122 34.4728 94.4747C31.5084 94.8797 28.4822 95.0906 25.4109 95.0906H25.1916Z" fill="url(#paint3_linear_1054_1813)"/>
<path fill-rule="evenodd" clip-rule="evenodd" d="M112.576 130.621C110.202 128.247 108.869 125.028 108.869 121.672C108.869 118.315 110.202 115.096 112.576 112.722C114.949 110.349 118.169 109.015 121.525 109.015C124.882 109.015 128.101 110.349 130.475 112.722L171.245 153.492C172.342 154.589 169.222 159.491 164.284 164.43C159.345 169.369 154.443 172.488 153.346 171.391L112.576 130.621Z" fill="url(#paint4_linear_1054_1813)"/>
<path fill-rule="evenodd" clip-rule="evenodd" d="M112.576 130.621C110.202 128.247 108.869 125.028 108.869 121.672C108.869 118.315 110.202 115.096 112.576 112.722C114.949 110.349 118.169 109.015 121.525 109.015C124.882 109.015 128.101 110.349 130.475 112.722L167.375 149.622C168.472 150.719 165.352 155.621 160.414 160.56C155.475 165.499 150.573 168.618 149.476 167.521L112.576 130.621Z" fill="url(#paint5_linear_1054_1813)"/>
<path fill-rule="evenodd" clip-rule="evenodd" d="M65.8491 63.0984C65.7844 60.4181 66.7912 58.4606 68.3437 57.3131C70.785 55.5131 74.4328 55.5891 76.4128 57.8194C77.2622 58.7784 77.7544 60.1341 77.7684 61.8497C77.8022 65.9644 75.8728 68.3691 73.9828 70.8581C71.4403 74.2134 68.9006 77.6616 68.5856 83.4188C68.545 84.1639 68.802 84.8947 69.3002 85.4504C69.7983 86.0061 70.4969 86.3411 71.242 86.3817C71.9872 86.4224 72.718 86.1653 73.2737 85.6672C73.8293 85.169 74.1643 84.4705 74.205 83.7253C74.4412 79.3519 76.5337 76.8038 78.4659 74.2556C81.0534 70.8441 83.4412 67.4409 83.3934 61.8047C83.3653 58.4916 82.26 55.935 80.6175 54.0844C76.7812 49.7644 69.7359 49.2975 65.0053 52.785C62.1703 54.8775 60.1087 58.3425 60.2241 63.2306C60.2416 63.9766 60.5547 64.685 61.0946 65.2C61.6344 65.7151 62.3567 65.9946 63.1027 65.977C63.8486 65.9595 64.557 65.6464 65.072 65.1065C65.5871 64.5667 65.8666 63.8444 65.8491 63.0984Z" fill="url(#paint6_linear_1054_1813)"/>
<path d="M71.1338 96.8259C73.0443 96.8259 74.5931 95.2771 74.5931 93.3665C74.5931 91.456 73.0443 89.9072 71.1338 89.9072C69.2232 89.9072 67.6744 91.456 67.6744 93.3665C67.6744 95.2771 69.2232 96.8259 71.1338 96.8259Z" fill="url(#paint7_linear_1054_1813)"/>
<path fill-rule="evenodd" clip-rule="evenodd" d="M121.747 23.8978L130.185 9.83531C130.375 9.5186 130.501 9.16756 130.555 8.80224C130.61 8.43692 130.591 8.06446 130.502 7.70615C130.412 7.34783 130.253 7.01066 130.033 6.7139C129.813 6.41714 129.537 6.16659 129.22 5.97656C128.904 5.78654 128.553 5.66075 128.187 5.60639C127.822 5.55203 127.449 5.57016 127.091 5.65974C126.733 5.74931 126.396 5.90859 126.099 6.12848C125.802 6.34836 125.552 6.62454 125.362 6.94125L116.924 21.0038C116.54 21.6434 116.426 22.4093 116.607 23.1329C116.788 23.8566 117.249 24.4787 117.889 24.8625C118.528 25.2463 119.294 25.3602 120.018 25.1793C120.742 24.9984 121.364 24.5374 121.747 23.8978Z" fill="url(#paint8_linear_1054_1813)"/>
<path fill-rule="evenodd" clip-rule="evenodd" d="M135.053 33.165L165.991 10.665C166.594 10.2264 166.999 9.56604 167.115 8.8292C167.232 8.09236 167.051 7.33939 166.613 6.73594C166.395 6.43714 166.121 6.18404 165.806 5.9911C165.491 5.79815 165.142 5.66914 164.777 5.61142C164.04 5.49485 163.287 5.67577 162.683 6.11437L131.746 28.6144C131.142 29.053 130.738 29.7133 130.621 30.4502C130.505 31.187 130.686 31.94 131.124 32.5434C131.563 33.1469 132.223 33.5514 132.96 33.668C133.697 33.7845 134.45 33.6036 135.053 33.165Z" fill="url(#paint9_linear_1054_1813)"/>
<path fill-rule="evenodd" clip-rule="evenodd" d="M139.705 50.4928L162.205 44.8678C162.569 44.7835 162.912 44.6275 163.215 44.4091C163.518 44.1907 163.774 43.9142 163.969 43.5956C164.164 43.2771 164.294 42.923 164.35 42.5539C164.407 42.1848 164.389 41.8081 164.299 41.4459C164.208 41.0836 164.046 40.743 163.823 40.444C163.599 40.1449 163.318 39.8933 162.996 39.704C162.675 39.5146 162.318 39.3912 161.948 39.341C161.578 39.2908 161.202 39.3148 160.841 39.4116L138.341 45.0366C137.629 45.2277 137.02 45.691 136.646 46.3267C136.272 46.9624 136.163 47.7196 136.342 48.4351C136.52 49.1507 136.973 49.7673 137.602 50.1522C138.232 50.5371 138.987 50.6594 139.705 50.4928Z" fill="url(#paint10_linear_1054_1813)"/>
<defs>
<linearGradient id="paint0_linear_1054_1813" x1="116.535" y1="93.3744" x2="108.447" y2="121.094" gradientUnits="userSpaceOnUse">
<stop stop-color="#14A800"/>
<stop offset="1" stop-color="#14A800"/>
</linearGradient>
<linearGradient id="paint1_linear_1054_1813" x1="39.2756" y1="45.8974" x2="104.268" y2="105.115" gradientUnits="userSpaceOnUse">
<stop stop-color="white"/>
<stop offset="1" stop-color="#E9F3FC"/>
</linearGradient>
<linearGradient id="paint2_linear_1054_1813" x1="86.476" y1="27.965" x2="105.247" y2="111.818" gradientUnits="userSpaceOnUse">
<stop stop-color="#A4BBDB"/>
<stop offset="1" stop-color="#8DA3BE"/>
</linearGradient>
<linearGradient id="paint3_linear_1054_1813" x1="43.197" y1="25.5729" x2="66.845" y2="97.6088" gradientUnits="userSpaceOnUse">
<stop stop-color="#CADCF0"/>
<stop offset="1" stop-color="#A4BBDB"/>
</linearGradient>
<linearGradient id="paint4_linear_1054_1813" x1="150.423" y1="132.672" x2="136.808" y2="158.831" gradientUnits="userSpaceOnUse">
<stop stop-color="#A4BBDB"/>
<stop offset="1" stop-color="#8DA3BE"/>
</linearGradient>
<linearGradient id="paint5_linear_1054_1813" x1="146.863" y1="129.11" x2="135.748" y2="153.793" gradientUnits="userSpaceOnUse">
<stop stop-color="#E9F3FC"/>
<stop offset="1" stop-color="#CADCF0"/>
</linearGradient>
<linearGradient id="paint6_linear_1054_1813" x1="60.21" y1="50.5448" x2="74.5816" y2="96.792" gradientUnits="userSpaceOnUse">
<stop stop-color="#14A800"/>
<stop offset="1" stop-color="#2E69EF"/>
<stop offset="1" stop-color="#14A800"/>
</linearGradient>
<linearGradient id="paint7_linear_1054_1813" x1="60.21" y1="50.5447" x2="74.5816" y2="96.792" gradientUnits="userSpaceOnUse">
<stop stop-color="#14A800"/>
<stop offset="1" stop-color="#14A800"/>
</linearGradient>
<linearGradient id="paint8_linear_1054_1813" x1="153.018" y1="15.2753" x2="118.613" y2="40.8651" gradientUnits="userSpaceOnUse">
<stop stop-color="#14A800"/>
<stop offset="1" stop-color="#14A800"/>
</linearGradient>
<linearGradient id="paint9_linear_1054_1813" x1="153.018" y1="15.2753" x2="118.613" y2="40.8651" gradientUnits="userSpaceOnUse">
<stop stop-color="#14A800"/>
<stop offset="1" stop-color="#14A800"/>
</linearGradient>
<linearGradient id="paint10_linear_1054_1813" x1="153.018" y1="15.2753" x2="118.613" y2="40.8651" gradientUnits="userSpaceOnUse">
<stop stop-color="#14A800"/>
<stop offset="1" stop-color="#14A800"/>
</linearGradient>
</defs>
</svg>